<mxfile host="Electron" agent="Mozilla/5.0 (Windows NT 10.0; Win64; x64) AppleWebKit/537.36 (KHTML, like Gecko) draw.io/28.0.4 Chrome/138.0.7204.97 Electron/37.2.1 Safari/537.36" version="28.0.4">
  <diagram name="Page-1" id="aX74fNqAhUjjL1ogn9fY">
    <mxGraphModel dx="893" dy="1783" grid="1" gridSize="10" guides="1" tooltips="1" connect="1" arrows="1" fold="1" page="1" pageScale="1" pageWidth="850" pageHeight="1100" math="0" shadow="0">
      <root>
        <mxCell id="0" />
        <mxCell id="1" parent="0" />
        <mxCell id="mIJz1FS__v6aON707hBq-9" value="" style="group;fillColor=none;strokeColor=none;" vertex="1" connectable="0" parent="1">
          <mxGeometry x="110" y="110" width="230" height="840" as="geometry" />
        </mxCell>
        <mxCell id="mIJz1FS__v6aON707hBq-1" value="" style="rounded=0;whiteSpace=wrap;html=1;dashed=1;fillColor=none;" vertex="1" parent="mIJz1FS__v6aON707hBq-9">
          <mxGeometry y="55.32240000000001" width="230.00000000000003" height="784.6776000000001" as="geometry" />
        </mxCell>
        <mxCell id="mIJz1FS__v6aON707hBq-5" value="&lt;font style=&quot;font-size: 17px;&quot;&gt;Sources&lt;/font&gt;" style="rounded=0;whiteSpace=wrap;html=1;arcSize=26;fillColor=none;strokeColor=none;strokeWidth=2;" vertex="1" parent="mIJz1FS__v6aON707hBq-9">
          <mxGeometry x="43.80699633699634" width="148.2783882783883" height="73.75609756097563" as="geometry" />
        </mxCell>
        <mxCell id="mIJz1FS__v6aON707hBq-12" value="" style="group" vertex="1" connectable="0" parent="mIJz1FS__v6aON707hBq-9">
          <mxGeometry x="69.14" y="140" width="97.91" height="130" as="geometry" />
        </mxCell>
        <mxCell id="mIJz1FS__v6aON707hBq-10" value="" style="image;aspect=fixed;html=1;points=[];align=center;fontSize=12;image=img/lib/azure2/general/Folder_Blank.svg;" vertex="1" parent="mIJz1FS__v6aON707hBq-12">
          <mxGeometry width="69.06947473471779" height="56.05151124748857" as="geometry" />
        </mxCell>
        <mxCell id="mIJz1FS__v6aON707hBq-11" value="" style="image;aspect=fixed;html=1;points=[];align=center;fontSize=12;image=img/lib/azure2/general/File.svg;" vertex="1" parent="mIJz1FS__v6aON707hBq-12">
          <mxGeometry x="59.07843888993296" y="51.99238950141476" width="31.08834791885012" height="38.301866019117185" as="geometry" />
        </mxCell>
        <mxCell id="mIJz1FS__v6aON707hBq-18" value="&lt;font style=&quot;font-size: 17px;&quot;&gt;CRM&lt;/font&gt;" style="text;html=1;align=center;verticalAlign=middle;whiteSpace=wrap;rounded=0;" vertex="1" parent="mIJz1FS__v6aON707hBq-9">
          <mxGeometry x="69.13714285714286" y="200" width="77.43333333333334" height="67.2" as="geometry" />
        </mxCell>
        <mxCell id="mIJz1FS__v6aON707hBq-32" style="edgeStyle=orthogonalEdgeStyle;rounded=0;orthogonalLoop=1;jettySize=auto;html=1;exitX=0.5;exitY=1;exitDx=0;exitDy=0;" edge="1" parent="mIJz1FS__v6aON707hBq-9" source="mIJz1FS__v6aON707hBq-1" target="mIJz1FS__v6aON707hBq-1">
          <mxGeometry relative="1" as="geometry" />
        </mxCell>
        <mxCell id="mIJz1FS__v6aON707hBq-91" value="" style="group" vertex="1" connectable="0" parent="mIJz1FS__v6aON707hBq-9">
          <mxGeometry x="60" y="510" width="116.19" height="140" as="geometry" />
        </mxCell>
        <mxCell id="mIJz1FS__v6aON707hBq-13" value="" style="group" vertex="1" connectable="0" parent="mIJz1FS__v6aON707hBq-91">
          <mxGeometry width="116.19" height="139.99999999999994" as="geometry" />
        </mxCell>
        <mxCell id="mIJz1FS__v6aON707hBq-14" value="" style="image;aspect=fixed;html=1;points=[];align=center;fontSize=12;image=img/lib/azure2/general/Folder_Blank.svg;" vertex="1" parent="mIJz1FS__v6aON707hBq-13">
          <mxGeometry width="70.22434996000943" height="56.98871978901151" as="geometry" />
        </mxCell>
        <mxCell id="mIJz1FS__v6aON707hBq-19" value="&lt;font style=&quot;font-size: 16px;&quot;&gt;ERP&lt;/font&gt;" style="text;html=1;align=center;verticalAlign=middle;whiteSpace=wrap;rounded=0;" vertex="1" parent="mIJz1FS__v6aON707hBq-13">
          <mxGeometry x="9.552352110389608" y="80.15267175572517" width="51.11919886363636" height="59.84732824427479" as="geometry" />
        </mxCell>
        <mxCell id="mIJz1FS__v6aON707hBq-15" value="" style="image;aspect=fixed;html=1;points=[];align=center;fontSize=12;image=img/lib/azure2/general/File.svg;" vertex="1" parent="mIJz1FS__v6aON707hBq-91">
          <mxGeometry x="46.21033546539441" y="35.89697288160925" width="31.60816022297758" height="38.94229185582453" as="geometry" />
        </mxCell>
        <mxCell id="mIJz1FS__v6aON707hBq-31" value="&#xa;" style="group;strokeColor=none;" vertex="1" connectable="0" parent="1">
          <mxGeometry x="390" y="130" width="1110" height="820" as="geometry" />
        </mxCell>
        <mxCell id="mIJz1FS__v6aON707hBq-6" value="" style="rounded=0;whiteSpace=wrap;html=1;dashed=1;fillColor=none;strokeColor=default;" vertex="1" parent="mIJz1FS__v6aON707hBq-31">
          <mxGeometry y="20" width="696.2727272727273" height="800" as="geometry" />
        </mxCell>
        <mxCell id="mIJz1FS__v6aON707hBq-8" value="" style="rounded=0;whiteSpace=wrap;html=1;dashed=1;fillColor=none;" vertex="1" parent="mIJz1FS__v6aON707hBq-31">
          <mxGeometry x="777" y="20" width="252.27272727272725" height="770" as="geometry" />
        </mxCell>
        <mxCell id="mIJz1FS__v6aON707hBq-23" value="" style="group;fillColor=none;strokeColor=#473400;" vertex="1" connectable="0" parent="mIJz1FS__v6aON707hBq-31">
          <mxGeometry x="10.09090909090909" y="34" width="211.9090909090909" height="726" as="geometry" />
        </mxCell>
        <mxCell id="mIJz1FS__v6aON707hBq-20" value="&lt;font style=&quot;font-size: 16px;&quot;&gt;Bronze&lt;/font&gt;" style="rounded=0;whiteSpace=wrap;html=1;fillColor=#ffcd28;gradientColor=light-dark(#FFA500,#52472E);strokeColor=#d79b00;" vertex="1" parent="mIJz1FS__v6aON707hBq-23">
          <mxGeometry width="171.54545454545453" height="65.34" as="geometry" />
        </mxCell>
        <mxCell id="mIJz1FS__v6aON707hBq-22" value="" style="rounded=0;whiteSpace=wrap;html=1;fillColor=none;gradientColor=#ffa500;strokeColor=#d79b00;" vertex="1" parent="mIJz1FS__v6aON707hBq-23">
          <mxGeometry y="83.49" width="181.63636363636363" height="642.51" as="geometry" />
        </mxCell>
        <mxCell id="mIJz1FS__v6aON707hBq-63" value="" style="shape=datastore;whiteSpace=wrap;html=1;fillColor=light-dark(#ffcd28, #745902);gradientColor=light-dark(#ffa500, #b67702);strokeColor=#d79b00;" vertex="1" parent="mIJz1FS__v6aON707hBq-23">
          <mxGeometry x="55.5" y="152.46" width="60.54545454545454" height="108.89999999999999" as="geometry" />
        </mxCell>
        <mxCell id="mIJz1FS__v6aON707hBq-66" value="Raw Data" style="text;html=1;align=center;verticalAlign=middle;whiteSpace=wrap;rounded=0;" vertex="1" parent="mIJz1FS__v6aON707hBq-23">
          <mxGeometry x="55.5" y="261.36" width="60.54545454545454" height="54.449999999999996" as="geometry" />
        </mxCell>
        <mxCell id="mIJz1FS__v6aON707hBq-68" value="" style="line;strokeWidth=2;html=1;" vertex="1" parent="mIJz1FS__v6aON707hBq-23">
          <mxGeometry x="10.09090909090909" y="346.66499999999996" width="161.45454545454544" height="18.15" as="geometry" />
        </mxCell>
        <mxCell id="mIJz1FS__v6aON707hBq-73" value="&lt;div style=&quot;text-align: left;&quot;&gt;&lt;span style=&quot;text-align: center;&quot;&gt;Object Type: Tables&lt;/span&gt;&lt;span style=&quot;background-color: transparent; color: light-dark(rgb(0, 0, 0), rgb(255, 255, 255));&quot;&gt;&lt;/span&gt;&lt;/div&gt;&lt;div style=&quot;text-align: left;&quot;&gt;&lt;span style=&quot;text-align: center;&quot;&gt;&lt;br&gt;&lt;/span&gt;&lt;/div&gt;&lt;div style=&quot;text-align: left;&quot;&gt;&lt;span style=&quot;background-color: transparent; color: light-dark(rgb(0, 0, 0), rgb(255, 255, 255));&quot;&gt;Load:&lt;/span&gt;&lt;/div&gt;&lt;div&gt;&lt;ul&gt;&lt;li&gt;Batch Processing&lt;/li&gt;&lt;li style=&quot;text-align: left;&quot;&gt;Full load&lt;/li&gt;&lt;li style=&quot;text-align: left;&quot;&gt;Turncate &amp;amp; Insert&lt;/li&gt;&lt;/ul&gt;&lt;div style=&quot;&quot;&gt;No Transformations&lt;/div&gt;&lt;/div&gt;&lt;div style=&quot;text-align: justify;&quot;&gt;&amp;nbsp; &amp;nbsp;&amp;nbsp;&lt;/div&gt;&lt;div style=&quot;text-align: justify;&quot;&gt;&amp;nbsp; &amp;nbsp; Data Model: None(as-is)&lt;/div&gt;" style="text;html=1;align=center;verticalAlign=middle;whiteSpace=wrap;rounded=0;" vertex="1" parent="mIJz1FS__v6aON707hBq-23">
          <mxGeometry x="10.09090909090909" y="373.89" width="161.45454545454544" height="270.435" as="geometry" />
        </mxCell>
        <mxCell id="mIJz1FS__v6aON707hBq-24" value="" style="group" vertex="1" connectable="0" parent="mIJz1FS__v6aON707hBq-31">
          <mxGeometry x="272.45454545454544" y="34" width="171.54545454545453" height="726" as="geometry" />
        </mxCell>
        <mxCell id="mIJz1FS__v6aON707hBq-25" value="&lt;font style=&quot;font-size: 16px;&quot;&gt;Silver&lt;/font&gt;" style="rounded=0;whiteSpace=wrap;html=1;fillColor=#f5f5f5;gradientColor=#b3b3b3;strokeColor=#666666;" vertex="1" parent="mIJz1FS__v6aON707hBq-24">
          <mxGeometry width="171.54545454545453" height="65.34" as="geometry" />
        </mxCell>
        <mxCell id="mIJz1FS__v6aON707hBq-26" value="&lt;span style=&quot;color: rgba(0, 0, 0, 0); font-family: monospace; font-size: 0px; text-align: start; text-wrap-mode: nowrap;&quot;&gt;%3CmxGraphModel%3E%3Croot%3E%3CmxCell%20id%3D%220%22%2F%3E%3CmxCell%20id%3D%221%22%20parent%3D%220%22%2F%3E%3CmxCell%20id%3D%222%22%20value%3D%22%22%20style%3D%22group%22%20vertex%3D%221%22%20connectable%3D%220%22%20parent%3D%221%22%3E%3CmxGeometry%20x%3D%22640%22%20y%3D%22144%22%20width%3D%22170%22%20height%3D%22400%22%20as%3D%22geometry%22%2F%3E%3C%2FmxCell%3E%3CmxCell%20id%3D%223%22%20value%3D%22%26lt%3Bfont%20style%3D%26quot%3Bfont-size%3A%2016px%3B%26quot%3B%26gt%3BSilver%26lt%3B%2Ffont%26gt%3B%22%20style%3D%22rounded%3D0%3BwhiteSpace%3Dwrap%3Bhtml%3D1%3BfillColor%3D%23f5f5f5%3BgradientColor%3D%23b3b3b3%3BstrokeColor%3D%23666666%3B%22%20vertex%3D%221%22%20parent%3D%222%22%3E%3CmxGeometry%20width%3D%22170%22%20height%3D%2236%22%20as%3D%22geometry%22%2F%3E%3C%2FmxCell%3E%3CmxCell%20id%3D%224%22%20value%3D%22%22%20style%3D%22rounded%3D0%3BwhiteSpace%3Dwrap%3Bhtml%3D1%3BfillColor%3Dnone%3BgradientColor%3D%23b3b3b3%3BstrokeColor%3D%23CFCFCF%3B%22%20vertex%3D%221%22%20parent%3D%222%22%3E%3CmxGeometry%20y%3D%2246%22%20width%3D%22170%22%20height%3D%22354%22%20as%3D%22geometry%22%2F%3E%3C%2FmxCell%3E%3CmxCell%20id%3D%225%22%20value%3D%22%22%20style%3D%22shape%3Ddatastore%3BwhiteSpace%3Dwrap%3Bhtml%3D1%3BfillColor%3D%23f5f5f5%3BgradientColor%3D%23b3b3b3%3BstrokeColor%3D%23666666%3B%22%20vertex%3D%221%22%20parent%3D%222%22%3E%3CmxGeometry%20x%3D%2255%22%20y%3D%2286%22%20width%3D%2260%22%20height%3D%2260%22%20as%3D%22geometry%22%2F%3E%3C%2FmxCell%3E%3CmxCell%20id%3D%226%22%20value%3D%22%22%20style%3D%22line%3BstrokeWidth%3D2%3Bhtml%3D1%3B%22%20vertex%3D%221%22%20parent%3D%222%22%3E%3CmxGeometry%20x%3D%225%22%20y%3D%22186%22%20width%3D%22160%22%20height%3D%2210%22%20as%3D%22geometry%22%2F%3E%3C%2FmxCell%3E%3C%2Froot%3E%3C%2FmxGraphModel%3E&lt;/span&gt;" style="rounded=0;whiteSpace=wrap;html=1;fillColor=none;gradientColor=#b3b3b3;strokeColor=#CFCFCF;" vertex="1" parent="mIJz1FS__v6aON707hBq-24">
          <mxGeometry y="83.49" width="171.54545454545453" height="642.51" as="geometry" />
        </mxCell>
        <mxCell id="mIJz1FS__v6aON707hBq-64" value="" style="shape=datastore;whiteSpace=wrap;html=1;fillColor=#f5f5f5;gradientColor=#b3b3b3;strokeColor=#666666;" vertex="1" parent="mIJz1FS__v6aON707hBq-24">
          <mxGeometry x="55.5" y="156.09" width="60.54545454545454" height="108.89999999999999" as="geometry" />
        </mxCell>
        <mxCell id="mIJz1FS__v6aON707hBq-69" value="" style="line;strokeWidth=2;html=1;" vertex="1" parent="mIJz1FS__v6aON707hBq-24">
          <mxGeometry x="5.045454545454545" y="337.59" width="161.45454545454544" height="18.15" as="geometry" />
        </mxCell>
        <mxCell id="mIJz1FS__v6aON707hBq-75" value="&lt;div style=&quot;text-align: left;&quot;&gt;&lt;span style=&quot;text-align: center;&quot;&gt;Object Type: Tables&lt;/span&gt;&lt;span style=&quot;background-color: transparent; color: light-dark(rgb(0, 0, 0), rgb(255, 255, 255));&quot;&gt;&lt;/span&gt;&lt;/div&gt;&lt;div style=&quot;text-align: left;&quot;&gt;&lt;span style=&quot;text-align: center;&quot;&gt;&lt;br&gt;&lt;/span&gt;&lt;/div&gt;&lt;div style=&quot;text-align: left;&quot;&gt;&lt;span style=&quot;background-color: transparent; color: light-dark(rgb(0, 0, 0), rgb(255, 255, 255));&quot;&gt;Load:&lt;/span&gt;&lt;/div&gt;&lt;div&gt;&lt;ul&gt;&lt;li&gt;Batch Processing&lt;/li&gt;&lt;li style=&quot;text-align: left;&quot;&gt;Full load&lt;/li&gt;&lt;li style=&quot;text-align: left;&quot;&gt;Turncate &amp;amp; Insert&lt;/li&gt;&lt;/ul&gt;&lt;div style=&quot;text-align: left;&quot;&gt;&amp;nbsp;Transformations:&lt;/div&gt;&lt;/div&gt;&lt;div style=&quot;&quot;&gt;&lt;ul&gt;&lt;li style=&quot;text-align: left;&quot;&gt;Data Cleaning&lt;/li&gt;&lt;li style=&quot;text-align: left;&quot;&gt;Data Standardization&lt;/li&gt;&lt;li style=&quot;text-align: left;&quot;&gt;Data Normalization&lt;/li&gt;&lt;li style=&quot;text-align: left;&quot;&gt;Derived Columns&lt;/li&gt;&lt;li style=&quot;text-align: left;&quot;&gt;Data Enrichment&lt;/li&gt;&lt;/ul&gt;&lt;/div&gt;&lt;div style=&quot;text-align: justify;&quot;&gt;&amp;nbsp; &amp;nbsp;&amp;nbsp;&lt;/div&gt;&lt;div style=&quot;text-align: justify;&quot;&gt;&amp;nbsp; &amp;nbsp; Data Model: None(as-is)&lt;/div&gt;" style="text;html=1;align=center;verticalAlign=middle;whiteSpace=wrap;rounded=0;" vertex="1" parent="mIJz1FS__v6aON707hBq-24">
          <mxGeometry x="5.045454545454545" y="373.89" width="161.45454545454544" height="270.435" as="geometry" />
        </mxCell>
        <mxCell id="mIJz1FS__v6aON707hBq-27" value="" style="group;fillColor=none;gradientColor=#ffa500;strokeColor=#d79b00;" vertex="1" connectable="0" parent="mIJz1FS__v6aON707hBq-31">
          <mxGeometry x="504.5454545454545" y="34" width="171.54545454545453" height="726" as="geometry" />
        </mxCell>
        <mxCell id="mIJz1FS__v6aON707hBq-28" value="&lt;font style=&quot;font-size: 16px;&quot;&gt;Gold&lt;/font&gt;" style="rounded=0;whiteSpace=wrap;html=1;fillColor=#FFD92D;gradientColor=#C58000;strokeColor=#d79b00;" vertex="1" parent="mIJz1FS__v6aON707hBq-27">
          <mxGeometry width="171.54545454545453" height="65.34" as="geometry" />
        </mxCell>
        <mxCell id="mIJz1FS__v6aON707hBq-29" value="" style="rounded=0;whiteSpace=wrap;html=1;fillColor=none;" vertex="1" parent="mIJz1FS__v6aON707hBq-27">
          <mxGeometry y="83.49" width="171.54545454545453" height="642.51" as="geometry" />
        </mxCell>
        <mxCell id="mIJz1FS__v6aON707hBq-65" value="" style="shape=datastore;whiteSpace=wrap;html=1;fillColor=light-dark(#ffcd28, #f7d35f);gradientColor=light-dark(#ffa500, #eebd63);strokeColor=light-dark(#d79b00, #e9b52f);" vertex="1" parent="mIJz1FS__v6aON707hBq-27">
          <mxGeometry x="60.54545454545454" y="156.09" width="60.54545454545454" height="108.89999999999999" as="geometry" />
        </mxCell>
        <mxCell id="mIJz1FS__v6aON707hBq-70" value="" style="line;strokeWidth=2;html=1;" vertex="1" parent="mIJz1FS__v6aON707hBq-27">
          <mxGeometry x="10.09090909090909" y="337.59" width="161.45454545454544" height="18.15" as="geometry" />
        </mxCell>
        <mxCell id="mIJz1FS__v6aON707hBq-76" value="&lt;div style=&quot;text-align: left;&quot;&gt;&lt;span style=&quot;text-align: center;&quot;&gt;Object Type: Views&lt;/span&gt;&lt;span style=&quot;background-color: transparent; color: light-dark(rgb(0, 0, 0), rgb(255, 255, 255));&quot;&gt;&lt;/span&gt;&lt;/div&gt;&lt;div style=&quot;text-align: left;&quot;&gt;&lt;span style=&quot;text-align: center;&quot;&gt;&lt;br&gt;&lt;/span&gt;&lt;/div&gt;&lt;div style=&quot;text-align: left;&quot;&gt;&lt;span style=&quot;background-color: transparent; color: light-dark(rgb(0, 0, 0), rgb(255, 255, 255));&quot;&gt;No Load:&lt;/span&gt;&lt;/div&gt;&lt;div style=&quot;text-align: left;&quot;&gt;&lt;span style=&quot;background-color: transparent; color: light-dark(rgb(0, 0, 0), rgb(255, 255, 255));&quot;&gt;&lt;br&gt;&lt;/span&gt;&lt;/div&gt;&lt;div style=&quot;text-align: left;&quot;&gt;&lt;span style=&quot;background-color: transparent; color: light-dark(rgb(0, 0, 0), rgb(255, 255, 255));&quot;&gt;&lt;br&gt;&lt;/span&gt;&lt;/div&gt;&lt;div&gt;&lt;div style=&quot;text-align: left;&quot;&gt;&amp;nbsp;Transformations:&lt;/div&gt;&lt;/div&gt;&lt;div style=&quot;&quot;&gt;&lt;ul&gt;&lt;li style=&quot;text-align: left;&quot;&gt;Data Integration&lt;/li&gt;&lt;li style=&quot;text-align: left;&quot;&gt;Aggregations&lt;/li&gt;&lt;li style=&quot;text-align: left;&quot;&gt;Business Logics&lt;/li&gt;&lt;/ul&gt;&lt;/div&gt;&lt;div style=&quot;text-align: justify;&quot;&gt;&amp;nbsp; &amp;nbsp;&amp;nbsp;&lt;/div&gt;&lt;div style=&quot;text-align: left;&quot;&gt;&amp;nbsp;Data Model:&amp;nbsp;&lt;/div&gt;&lt;div style=&quot;text-align: left;&quot;&gt;&lt;ul&gt;&lt;li&gt;Star Schema&lt;/li&gt;&lt;li&gt;Flat Table&lt;/li&gt;&lt;li&gt;Aggrgrated Table&lt;/li&gt;&lt;/ul&gt;&lt;/div&gt;" style="text;html=1;align=center;verticalAlign=middle;whiteSpace=wrap;rounded=0;" vertex="1" parent="mIJz1FS__v6aON707hBq-27">
          <mxGeometry x="10.09090909090909" y="366" width="161.45454545454544" height="270.435" as="geometry" />
        </mxCell>
        <mxCell id="mIJz1FS__v6aON707hBq-7" value="&lt;font style=&quot;font-size: 18px;&quot;&gt;Data Warehouse&lt;/font&gt;&lt;div&gt;&lt;br&gt;&lt;/div&gt;" style="rounded=0;whiteSpace=wrap;html=1;arcSize=26;fillColor=none;strokeColor=none;" vertex="1" parent="mIJz1FS__v6aON707hBq-31">
          <mxGeometry x="277.5" y="-6" width="141.27272727272725" height="40" as="geometry" />
        </mxCell>
        <mxCell id="mIJz1FS__v6aON707hBq-94" value="&lt;font style=&quot;font-size: 17px;&quot;&gt;Consume&lt;/font&gt;" style="rounded=0;whiteSpace=wrap;html=1;fillColor=none;strokeColor=none;" vertex="1" parent="mIJz1FS__v6aON707hBq-31">
          <mxGeometry x="847.6363636363636" y="-16" width="121.09090909090908" height="60" as="geometry" />
        </mxCell>
        <mxCell id="mIJz1FS__v6aON707hBq-95" value="" style="image;aspect=fixed;html=1;points=[];align=center;fontSize=12;image=img/lib/azure2/analytics/Power_BI_Embedded.svg;" vertex="1" parent="mIJz1FS__v6aON707hBq-31">
          <mxGeometry x="860" y="170" width="75" height="100" as="geometry" />
        </mxCell>
        <mxCell id="mIJz1FS__v6aON707hBq-98" value="" style="sketch=0;html=1;aspect=fixed;strokeColor=none;shadow=0;fillColor=#3B8DF1;verticalAlign=top;labelPosition=center;verticalLabelPosition=bottom;shape=mxgraph.gcp2.big_query" vertex="1" parent="mIJz1FS__v6aON707hBq-31">
          <mxGeometry x="840.5" y="390" width="99" height="100" as="geometry" />
        </mxCell>
        <mxCell id="mIJz1FS__v6aON707hBq-99" value="" style="points=[];aspect=fixed;html=1;align=center;shadow=0;dashed=0;fillColor=#FF6A00;strokeColor=none;shape=mxgraph.alibaba_cloud.alimt_machine_translation;" vertex="1" parent="mIJz1FS__v6aON707hBq-31">
          <mxGeometry x="860" y="590" width="79.5" height="80" as="geometry" />
        </mxCell>
        <mxCell id="mIJz1FS__v6aON707hBq-127" value="&lt;font style=&quot;font-size: 16px;&quot;&gt;BI &amp;amp; Reporting&lt;/font&gt;" style="text;html=1;align=center;verticalAlign=middle;whiteSpace=wrap;rounded=0;" vertex="1" parent="mIJz1FS__v6aON707hBq-31">
          <mxGeometry x="812.5" y="290" width="170" height="30" as="geometry" />
        </mxCell>
        <mxCell id="mIJz1FS__v6aON707hBq-128" value="Ad- Hoc&lt;div&gt;SQL Queries&lt;/div&gt;&lt;div&gt;&lt;br&gt;&lt;/div&gt;" style="text;html=1;align=center;verticalAlign=middle;whiteSpace=wrap;rounded=0;" vertex="1" parent="mIJz1FS__v6aON707hBq-31">
          <mxGeometry x="835" y="470" width="100" height="77" as="geometry" />
        </mxCell>
        <mxCell id="mIJz1FS__v6aON707hBq-130" value="&lt;div&gt;Machine Learning&lt;/div&gt;&lt;div&gt;&lt;br&gt;&lt;/div&gt;" style="text;html=1;align=center;verticalAlign=middle;whiteSpace=wrap;rounded=0;" vertex="1" parent="mIJz1FS__v6aON707hBq-31">
          <mxGeometry x="849.7499999999999" y="660" width="100" height="77" as="geometry" />
        </mxCell>
      </root>
    </mxGraphModel>
  </diagram>
</mxfile>
